<svg id="svg8" xmlns="http://www.w3.org/2000/svg" viewBox="0 0 1080 1080"><defs><style>.cls-1{fill:#c63f36;}.cls-2{fill:#fff;}</style></defs><title>logo</title><g id="layer1"><rect class="cls-1" width="1080" height="1080"/><path id="path60" class="cls-2" d="M198.19,796.23,55,757.62V599.7l1.4-.23,1.4-.23L199.9,585.61,342,572l337.3,13.63,337.3,13.63,4.2.26,4.2.27V757.59l-341.6,38.69L341.79,835l-.22-.08-.21-.07-143.17-38.6Zm-73.36-269.5V470.16L234,426.36l109.13-43.81L640.4,428.84l297.32,46.28h1.08V582h-2.88L639.59,569.08,343.27,556.16,235.11,569.72,127,583.29h-2.13V526.73ZM602.91,409,344.8,363.12h-2L258,400.65,173.3,438.2l-.75.2-.76.21.06-28,.05-27.95.27-9.44.27-9.45,85.32-59.39L343.07,245l.44.17.45.17,259.28,66.92L862.53,379.2v75.68l-.76-.05-.75,0Z"/></g></svg>