<svg viewBox="0 0 585.84 356.32" xmlns="http://www.w3.org/2000/svg"><path d="m333.05 694.76-86.47-23.32v-95.38l.84-.14.85-.14 85.81-8.23 85.82-8.23 203.72 8.23 203.73 8.23 2.53.16 2.54.16v95.32l-206.32 23.37-206.32 23.37h-.13-.13l-86.47-23.31zm-44.31-162.76v-34.18l65.91-26.46 65.92-26.46 179.57 28 179.58 28h.65v64.55h-1.74l-179-7.81-179-7.8-65.28 8.16-65.35 8.15h-1.29v-34.15zm288.76-71.15-155.9-27.68h-1.22l-51.18 22.66-51.2 22.68-.46.13-.45.12v-16.88-16.89l.16-5.7.17-5.7 51.58-35.88 51.53-35.87.27.1.26.1 156.64 40.42 156.6 40.42v45.71h-.45-.46z" fill="#fff" transform="translate(-246.58 -361.84)"/></svg>